HIERARCHY
ROOT Hips
{
	OFFSET 0.000000 0.000000 0.000000
	CHANNELS 6 Xposition Yposition Zposition Zrotation Yrotation Xrotation 
	JOINT LHipJoint
	{
		OFFSET 0.000000 0.000000 0.000000
		CHANNELS 3 Zrotation Yrotation Xrotation
		JOINT LeftUpLeg
		{
			OFFSET 1.363060 -1.794630 0.839290
			CHANNELS 3 Zrotation Yrotation Xrotation
			JOINT LeftLeg
			{
				OFFSET 2.448110 -6.726130 0.000000
				CHANNELS 3 Zrotation Yrotation Xrotation
				JOINT LeftFoot
				{
					OFFSET 2.562200 -7.039590 0.000000
					CHANNELS 3 Zrotation Yrotation Xrotation
					JOINT LeftToeBase
					{
						OFFSET 0.157640 -0.433110 2.322550
						CHANNELS 3 Zrotation Yrotation Xrotation
						End Site
						{
							OFFSET 0.000000 0.000000 0.000000
						}
					}
				}
			}
		}
	}
	JOINT RHipJoint
	{
		OFFSET 0.000000 0.000000 0.000000
		CHANNELS 3 Zrotation Yrotation Xrotation
		JOINT RightUpLeg
		{
			OFFSET -1.305520 -1.794630 0.839290
			CHANNELS 3 Zrotation Yrotation Xrotation
			JOINT RightLeg
			{
				OFFSET -2.542530 -6.985550 0.000000
				CHANNELS 3 Zrotation Yrotation Xrotation
				JOINT RightFoot
				{
					OFFSET -2.568260 -7.056230 0.000000
					CHANNELS 3 Zrotation Yrotation Xrotation
					JOINT RightToeBase
					{
						OFFSET -0.164730 -0.452590 2.363150
						CHANNELS 3 Zrotation Yrotation Xrotation
						End Site
						{
							OFFSET 0.000000 0.000000 0.000000
						}
					}
				}
			}
		}
	}
	JOINT LowerBack
	{
		OFFSET 0.000000 0.000000 0.000000
		CHANNELS 3 Zrotation Yrotation Xrotation
		JOINT Spine
		{
			OFFSET 0.028270 2.035590 -0.193380
			CHANNELS 3 Zrotation Yrotation Xrotation
			JOINT Spine1
			{
				OFFSET 0.056720 2.048850 -0.042750
				CHANNELS 3 Zrotation Yrotation Xrotation
				JOINT Neck
				{
					OFFSET 0.000000 0.000000 0.000000
					CHANNELS 3 Zrotation Yrotation Xrotation
					JOINT Neck1
					{
						OFFSET -0.054170 1.746240 0.172020
						CHANNELS 3 Zrotation Yrotation Xrotation
						JOINT Head
						{
							OFFSET 0.104070 1.761360 -0.123970
							CHANNELS 3 Zrotation Yrotation Xrotation
							End Site
							{
								OFFSET 0.000000 0.000000 0.000000
							}
						}
					}
				}
				JOINT LeftShoulder
				{
					OFFSET 0.000000 0.000000 0.000000
					CHANNELS 3 Zrotation Yrotation Xrotation
					JOINT LeftArm
					{
						OFFSET 3.362410 1.200890 -0.311210
						CHANNELS 3 Zrotation Yrotation Xrotation
						JOINT LeftForeArm
						{
							OFFSET 4.983000 -0.000000 -0.000000
							CHANNELS 3 Zrotation Yrotation Xrotation
							JOINT LeftHand
							{
								OFFSET 3.483560 -0.000000 -0.000000
								CHANNELS 3 Zrotation Yrotation Xrotation
								JOINT LeftFingerBase
								{
									OFFSET 0.000000 0.000000 0.000000
									CHANNELS 3 Zrotation Yrotation Xrotation
									JOINT LeftHandIndex1
									{
										OFFSET 0.715260 -0.000000 -0.000000
										CHANNELS 3 Zrotation Yrotation Xrotation
										End Site
										{
											OFFSET 0.000000 0.000000 0.000000
										}
									}
								}
								JOINT LThumb
								{
									OFFSET 0.000000 0.000000 0.000000
									CHANNELS 3 Zrotation Yrotation Xrotation
									End Site
									{
										OFFSET 0.000000 0.000000 0.000000
									}
								}
							}
						}
					}
				}
				JOINT RightShoulder
				{
					OFFSET 0.000000 0.000000 0.000000
					CHANNELS 3 Zrotation Yrotation Xrotation
					JOINT RightArm
					{
						OFFSET -3.136600 1.374050 -0.404650
						CHANNELS 3 Zrotation Yrotation Xrotation
						JOINT RightForeArm
						{
							OFFSET -5.241900 -0.000000 -0.000000
							CHANNELS 3 Zrotation Yrotation Xrotation
							JOINT RightHand
							{
								OFFSET -3.444170 -0.000000 -0.000000
								CHANNELS 3 Zrotation Yrotation Xrotation
								JOINT RightFingerBase
								{
									OFFSET 0.000000 0.000000 0.000000
									CHANNELS 3 Zrotation Yrotation Xrotation
									JOINT RightHandIndex1
									{
										OFFSET -0.622530 -0.000000 -0.000000
										CHANNELS 3 Zrotation Yrotation Xrotation
										End Site
										{
											OFFSET 0.000000 0.000000 0.000000
										}
									}
								}
								JOINT RThumb
								{
									OFFSET 0.000000 0.000000 0.000000
									CHANNELS 3 Zrotation Yrotation Xrotation
									End Site
									{
										OFFSET 0.000000 0.000000 0.000000
									}
								}
							}
						}
					}
				}
			}
		}
	}
}
MOTION
Frames: 5
Frame Time: 0.008333
2.052843 17.731988 3.548288 -89.852889 -79.436984 100.082526 -1.516791 -2.609061 -2.712198 4.428685 -9.298660 -28.163153 -0.318158 4.711568 11.635733 -1.628987 10.001718 6.975912 0.736200 -5.481600 -15.287300 1.724139 1.042562 -0.523549 32.549639 3.453226 1.524163 -0.311562 -6.889112 18.095874 0.178771 -3.504253 -7.971339 -0.000200 -0.094800 0.260500 5.617616 0.601880 2.366497 1.079663 1.114760 -4.841932 3.830159 0.220145 -0.754002 -8.796343 -7.092618 -9.570873 6.808203 -8.385218 3.650874 3.402600 -4.140400 5.242100 6.279259 2.819647 0.741686 -94.519246 7.827581 13.044963 15.136108 -33.889759 -4.439009 0.984096 2.213229 23.068262 12.471392 18.026089 3.388300 -7.125000 0.000000 0.000000 -14.166000 45.397500 -0.141900 -3.471607 -3.296320 -1.681145 83.046527 -4.023311 24.559708 -52.642673 56.187568 -31.048080 -0.571725 0.353809 10.452765 -19.004464 -24.991697 8.097000 7.125000 0.000000 0.000000 12.282800 -56.086800 -3.376400 
1.894793 17.717309 3.571111 -90.555079 -79.559745 100.687364 -1.530584 -2.608923 -2.698667 4.083978 -9.254506 -28.112640 -0.276460 4.972884 12.363721 -1.416434 9.505313 8.228184 0.732500 -5.468100 -15.248700 1.726002 1.042815 -0.531724 32.373420 3.575518 1.757010 -0.417203 -7.200353 18.997109 0.189692 -3.573328 -8.086541 -0.004900 0.452400 -1.243000 5.510294 0.586927 2.461105 1.082698 1.101733 -4.818220 3.901847 0.213694 -0.751964 -8.734687 -6.979248 -9.564877 6.741108 -8.225944 3.338366 3.380300 -4.063200 5.100800 6.296766 2.801338 0.759741 -94.541751 8.200736 12.998862 15.055121 -33.814692 -4.410610 0.979864 2.235810 22.993570 12.332220 18.251176 3.395300 -7.125000 0.000000 0.000000 -14.347400 45.585100 -0.211600 -3.498280 -3.294125 -1.695292 84.342269 -4.437012 23.381485 -48.538223 54.678099 -27.684927 -0.558380 0.365661 9.491982 -19.468379 -25.595735 8.511800 7.125000 0.000000 0.000000 12.102300 -56.818600 -3.541100 
1.734631 17.705747 3.595140 -91.501267 -79.773108 101.548177 -1.551356 -2.607271 -2.681933 3.652964 -9.245745 -28.037751 -0.242054 5.207923 13.016227 -1.205991 9.070028 9.589538 0.701500 -5.353700 -14.920300 1.735883 1.047834 -0.541643 32.078636 3.750745 1.913634 -0.545118 -7.558514 20.040765 0.209066 -3.671479 -8.128393 -0.024900 1.018100 -2.798500 5.305869 0.569003 2.528687 1.071068 1.085166 -4.798274 3.980207 0.205884 -0.745340 -8.658237 -6.860582 -9.570886 6.684152 -8.065522 3.076970 3.356700 -3.984100 4.980100 6.312795 2.784192 0.774665 -94.543917 8.546630 12.877895 14.904720 -33.663714 -4.358584 0.970781 2.265200 23.009620 12.054916 18.545961 3.378400 -7.125000 0.000000 0.000000 -14.666000 45.821000 -0.303700 -3.521685 -3.291193 -1.707384 85.410036 -4.781591 22.366382 -44.507720 52.977199 -24.440610 -0.545375 0.378125 8.566444 -19.958944 -26.308862 8.983100 7.125000 0.000000 0.000000 11.956900 -57.668900 -3.744200 
1.572861 17.698508 3.620074 -92.647653 -80.083640 102.610144 -1.579250 -2.603340 -2.661502 3.114934 -9.272237 -27.939085 -0.212526 5.427614 13.622456 -1.017156 8.729568 10.894546 0.639300 -5.115300 -14.237800 1.752756 1.057938 -0.553677 31.648145 3.941965 1.981372 -0.698329 -7.962031 21.226396 0.235093 -3.783556 -8.064446 -0.061600 1.601900 -4.406700 4.993316 0.543507 2.579403 1.045224 1.059919 -4.780425 4.072600 0.193704 -0.734966 -8.575089 -6.738466 -9.589237 6.640471 -7.904444 2.868199 3.334300 -3.903700 4.881100 6.328313 2.768907 0.786395 -94.526377 8.858153 12.678908 14.670432 -33.418713 -4.278564 0.969270 2.281457 23.126976 11.823031 18.736037 3.350900 -7.125000 0.000000 0.000000 -14.922000 45.967200 -0.364300 -3.541845 -3.287994 -1.716222 86.251675 -5.066482 21.538475 -40.591576 51.085183 -21.360180 -0.532728 0.392914 7.677898 -20.415336 -27.063570 9.462100 7.125000 0.000000 0.000000 11.882300 -58.558300 -3.975400 
1.409784 17.695995 3.645812 -93.850192 -80.473562 103.731310 -1.610817 -2.598224 -2.638475 2.468151 -9.317610 -27.844420 -0.181457 5.653387 14.244654 -0.854857 8.449225 11.996663 0.549000 -4.746600 -13.187300 1.773019 1.072900 -0.568233 31.095278 4.106622 1.927368 -0.882287 -8.413342 22.566665 0.263483 -3.882866 -7.861461 -0.111900 2.157200 -5.940200 4.598907 0.501515 2.615084 1.008304 1.013572 -4.764037 4.171574 0.171003 -0.718665 -8.484223 -6.613349 -9.626620 6.611269 -7.742534 2.710297 3.313800 -3.821500 4.804500 6.344420 2.756539 0.794411 -94.493011 9.118339 12.379268 14.343778 -33.067889 -4.168633 0.976182 2.283321 23.374057 11.634116 18.813654 3.312300 -7.125000 0.000000 0.000000 -15.113400 46.017400 -0.388300 -3.558500 -3.285432 -1.721228 86.879571 -5.288518 20.918542 -36.827218 49.009110 -18.480329 -0.520801 0.410729 6.831753 -20.758482 -27.827205 9.895800 7.125000 0.000000 0.000000 11.952000 -59.434800 -4.250800 
